<svg width="152.75" height="25.75" viewBox="0 0 611 103" fill="none" xmlns="http://www.w3.org/2000/svg"><path fill-rule="evenodd" clip-rule="evenodd" d="M76.1452 96.52L71.6652 82.824H41.4572L36.9772 
    96.52H7.15315L40.3052 5.896H73.0732L106.097 96.52H76.1452ZM237.719 
    96.52V73.864H205.719V61.064H233.879V39.688H205.719V28.552H237.719V5.896H177.303V96.52H237.719ZM242.719 
    15.5207V33.552H238.879V34.688V66.064V68.864H242.719V88.1502L267.107 
    49.9453L242.719 15.5207ZM273.132 49.8L243.308 96.52H275.692L289.516 72.968L306.156 96.52H339.82L308.076 
    51.72L337.388 5.896H305.004L291.692 28.552L275.692 5.896H242.028L273.132 49.8ZM341.058 
    28.424H364.866V96.52H393.282V28.424H417.346V5.896H341.058V28.424ZM503.389 80.264C506.374 76.1766 508.593 
    71.5713 510.049 66.448C510.508 64.8328 510.89 63.1661 511.197 61.448H481.245C479.88 64.4347 477.917 66.7813 
    475.357 68.488C472.883 70.1093 470.024 70.92 466.781 70.92C462.003 70.92 458.205 69.128 455.389 65.544C452.659 
    61.96 451.293 57.1387 451.293 51.08C451.293 45.0213 452.659 40.2 455.389 36.616C458.205 33.032 462.003 31.24 
    466.781 31.24C470.024 31.24 472.883 32.0933 
    475.357 33.8C477.917 35.4213 479.88 37.7253 481.245 40.712H511.197C510.89 38.9939 510.508 37.3272 510.049 
    35.712C508.593 30.5887 506.374 25.9834 503.389 21.896C499.549 16.52 494.514 12.3813 488.285 9.48C482.141 
    6.49334 475.144 5 467.293 5C458.163 5 450.227 6.96267 443.485 10.888C436.744 14.728 431.539 20.1467 
    427.869 27.144C424.285 34.1413 422.493 42.12 422.493 51.08C422.493 60.04 424.285 68.0187 427.869 
    75.016C431.539 82.0133 436.744 87.4747 443.485 91.4C450.227 95.24 458.163 97.16 467.293 97.16C475.144 
    97.16 482.141 95.7093 488.285 92.808C494.514 89.8213 499.549 85.64 503.389 80.264ZM549.844 
    61.192H576.852V96.52H605.268V5.896H576.852V38.536H549.844V5.896H521.428V96.52H549.844V61.192ZM140.969 
    75.016V5.896H112.553V96.52H168.361V75.016H140.969ZM56.5612 36.232L48.3692 61.448H64.7532L56.5612 36.232Z" fill="#FF4040">
</path>
</svg>