<svg width="267" height="235" viewBox="0 0 267 235" fill="none" xmlns="http://www.w3.org/2000/svg">
    <path fill-rule="evenodd" clip-rule="evenodd"
        d="M256.949 28.3322C260.421 64.0498 239.293 87.9959 193.56 100.195C226.882 84.6538 248.01 60.6995 
        256.949 28.3322V28.3322ZM264.519 69.0959C246.748 100.829 173.908 104.081 155.726 127.871C190.013 
        114.848 259.308 109.357 264.519 69.0959V69.0959ZM266.217 91.8483C258.838 117.433 234.305 127.731 
        192.62 122.751C230.413 119.491 254.944 109.193 266.217 91.8483ZM149.483 139.815C168.911 117.367 214.2 
        142.861 244.645 128.068C223.057 164.477 182.146 127.459 149.483 139.815V139.815ZM227.146 149.965C215.544 
        158.246 199.752 157.299 189.214 147.693C202.374 151.817 215.017 152.582 227.146 149.965ZM154.678 
        154.805C153.623 167.326 160.772 179.089 172.358 183.896C183.945 188.703 197.295 185.452 205.384
        175.845C196.051 181.122 184.819 181.804 174.915 177.697C165.02 173.589 157.556 165.145 154.678 
        154.805V154.805ZM217.053 164.527C194.755 172.816 169.711 164.411 156.896 144.334C176.309 156.731 
        196.355 163.465 217.053 164.527ZM135.596 81.6081C146.877 74.1829 156.302 71.911 163.881 74.7838C158.009 
        67.4494 151.166 66.091 143.355 70.7092C138.697 68.289 134.755 68.289 131.531 70.7092C127.291 72.3555 
        122.492 71.4667 119.112 68.429C115.74 65.3832 114.354 60.6911 115.542 56.2953C111.854 63.7452 114.098 
        72.7754 120.844 77.6238C117.999 79.3525 114.345 78.9493 111.946 76.6361C109.554 74.3231 109.011 70.6762 
        110.626 67.7704C106.916 72.298 106.017 78.5129 108.309 83.913C110.594 89.3048 115.673 92.9845 121.503 
        93.4535C119.285 99.6355 120.241 106.509 124.06 111.843C123.433 102.426 125.923 93.0667 131.151 
        85.2053C126.219 87.5844 120.349 86.8024 116.2 83.2216C120.976 82.884 126.27 80.6121 132.1 76.3892C139.603
        71.8699 140.775 73.607 135.596 81.6081V81.6081ZM1.93154 69.0959C19.6941 100.829 92.5428 104.081 110.725 
        127.87C76.4281 114.848 7.1349 109.357 1.93154 69.0959V69.0959ZM0.224426 91.8483C7.61317 117.433 32.146 
        127.731 73.8235 122.75C36.03 119.491 11.4972 109.193 0.224426 91.8483V91.8483ZM116.968 139.815C97.5397 
        117.367 52.2423 142.861 21.7968 128.068C43.3858 164.477 84.2954 127.459 116.968 139.815ZM39.2955 
        149.965C50.8982 158.246 66.6981 157.299 77.2292 147.693C64.0758 151.817 51.4342 152.582 39.2955 
        149.965ZM111.764 154.805C112.82 167.325 105.67 179.089 94.0834 183.896C82.5063 188.703 69.1465 
        185.452 61.0576 175.845C70.3925 181.122 81.6244 181.804 91.5279 177.697C101.423 173.589 108.886 
        165.145 111.764 154.805H111.764ZM49.3973 164.527C71.6877 172.816 96.7306 164.411 109.546 144.334C90.1346 
        156.731 70.087 163.465 49.3973 164.527ZM9.49335 28.3322C6.02166 64.0498 27.1487 87.9958 72.883 
        100.195C39.5595 84.6538 18.4323 60.6994 9.49335 28.3322ZM238.404 17.7132C239.756 50.3193 218.685 
        78.8916 175.211 103.414C150.827 119.466 135.885 138.86 150.968 169.004C157.638 182.34 169.827 192.054 
        184.299 195.56C169.258 194.186 155.495 186.546 146.357 174.495C119.896 139.634 141.764 112.419 173.322 
        93.7417C211.257 69.952 232.952 44.6062 238.412 17.7132H238.404V17.7132ZM127.754 176.801C123.829 194.712 
        112.028 209.504 96.1622 217.457C99.8735 221.409 104.169 224.758 108.886 227.408C120.472 213.25 127.219 
        195.487 127.754 176.801V176.801ZM130.969 178.504C130.27 196.952 125.271 214.889 116.49 230.923C121.074 
        232.619 125.939 233.689 130.969 234.053V178.504ZM175.335 211.192C160.005 205.109 147.396 192.96 140.965 
        176.989C150.333 190.548 164.524 199.544 180.175 202.515C178.823 205.586 177.198 208.485 175.335 
        211.192H175.335ZM138.697 176.801C142.614 194.705 154.415 209.504 170.279 217.457C166.57 221.409 
        162.273 224.758 157.564 227.408C145.979 213.25 139.225 195.487 138.697 176.801V176.801ZM135.472 
        178.504C136.174 196.952 141.171 214.889 149.961 230.923C145.368 232.619 140.502 233.689 135.472 
        234.053V178.504ZM91.1068 211.192C106.438 205.109 119.053 192.96 125.478 176.989C116.11 190.548 
        101.917 199.544 86.2666 202.515C87.6188 205.586 89.2432 208.485 91.1068 211.192ZM28.031 17.7133C26.6952 
        50.3193 47.7563 78.8916 91.2302 103.414C115.624 119.458 130.558 138.86 115.475 169.004C108.803 182.332 
        96.6151 192.045 82.1517 195.56C97.185 194.186 110.956 186.538 120.084 174.495C146.547 139.625 124.677 112.42 
        93.1191 93.7417C55.1862 69.9437 33.4902 44.6062 28.031 17.7133V17.7133ZM47.8882 0.187832C36.9206 34.3413 52.4898 
        62.2472 94.5948 83.8966C65.3374 61.6214 49.7684 33.7157 47.8882 0.187832V0.187832ZM218.554 0.187832C229.521 34.3413 
        213.953 62.2472 171.847 83.8966C201.112 61.6214 216.683 33.7157 218.554 0.187832V0.187832ZM156.5 80.6532C149.351 
        79.7888 142.507 83.7895 139.736 90.4491C136.957 97.1085 138.944 104.805 144.584 109.283C142.284 103.916 142.25 
        97.8412 144.502 92.4411C146.745 87.0493 151.084 82.7934 156.5 80.6532V80.6532Z"
        fill="#D2AE6D" />
</svg>