<svg width="287" height="195" viewBox="0 0 287 195" fill="none" xmlns="http://www.w3.org/2000/svg">
<path fill-rule="evenodd" clip-rule="evenodd" d="M156.609 51.6823C152.094 51.1354 147.771 53.6667 146.021 57.8802C144.266 62.0937 145.521 66.9635 149.083 69.7969C147.63 66.401 147.609 62.5573 149.031 59.1406C150.448 55.7292 153.188 53.0365 156.609 51.6823ZM195.802 0.770828C202.729 22.3802 192.896 40.0365 166.302 53.7344C184.786 39.6406 194.62 21.9844 195.802 0.770828ZM88.0104 0.770828C81.0833 22.3802 90.9167 40.0365 117.51 53.7344C99.0312 39.6406 89.1979 21.9844 88.0104 0.770828ZM75.4687 11.8594C74.625 32.4896 87.9271 50.5677 115.385 66.0833C130.792 76.2344 140.224 88.5104 130.698 107.583C126.484 116.016 118.786 122.161 109.651 124.385C119.146 123.516 127.844 118.677 133.609 111.057C150.323 88.9948 136.51 71.7812 116.578 59.9635C92.6198 44.9062 78.9167 28.875 75.4687 11.8594ZM115.307 134.276C124.99 130.427 132.958 122.74 137.016 112.635C131.099 121.214 122.135 126.906 112.25 128.786C113.104 130.729 114.13 132.563 115.307 134.276ZM143.328 113.594C143.771 125.266 146.927 136.615 152.479 146.76C149.578 147.833 146.505 148.51 143.328 148.74V113.594ZM145.365 112.516C147.839 123.844 155.292 133.208 165.312 138.24C162.969 140.74 160.255 142.859 157.281 144.536C149.964 135.578 145.698 124.339 145.365 112.516ZM168.505 134.276C158.823 130.427 150.859 122.74 146.797 112.635C152.714 121.214 161.677 126.906 171.562 128.786C170.708 130.729 169.682 132.563 168.505 134.276ZM140.484 113.594C140.042 125.266 136.885 136.615 131.339 146.76C134.234 147.833 137.307 148.51 140.484 148.74V113.594ZM138.453 112.516C135.974 123.849 128.521 133.208 118.5 138.24C120.844 140.74 123.557 142.859 126.536 144.536C133.854 135.578 138.115 124.339 138.453 112.516ZM208.339 11.8594C209.193 32.4896 195.885 50.5677 168.427 66.0833C153.026 76.2396 143.589 88.5104 153.115 107.583C157.328 116.021 165.026 122.167 174.167 124.385C164.667 123.516 155.974 118.682 150.203 111.057C133.49 89 147.302 71.7812 167.234 59.9635C191.193 44.9115 204.896 28.875 208.344 11.8594H208.339ZM63.7604 18.5781C61.5677 41.1771 74.9114 56.3281 103.797 64.0469C82.75 54.2135 69.4062 39.0573 63.7604 18.5781ZM88.9635 104.75C103.042 109.995 118.859 104.677 126.953 91.974C114.693 99.8177 102.031 104.078 88.9635 104.75ZM128.354 98.599C129.021 106.521 124.505 113.964 117.187 117.005C109.875 120.047 101.437 117.99 96.3281 111.911C102.224 115.25 109.318 115.682 115.573 113.083C121.823 110.484 126.536 105.141 128.354 98.599ZM82.5833 95.5365C89.9115 100.776 99.8906 100.177 106.542 94.099C98.2344 96.7083 90.25 97.1927 82.5833 95.5365ZM131.641 89.1146C119.37 74.9115 90.7604 91.0417 71.5312 81.6823C85.1667 104.719 111.005 81.2969 131.641 89.1146ZM57.9062 58.7656C62.5729 74.9531 78.0677 81.4687 104.391 78.3177C80.5208 76.2552 65.026 69.7396 57.9062 58.7656ZM58.9844 44.3698C70.2031 64.4479 116.214 66.5052 127.698 81.5573C106.036 73.3177 62.2708 69.8437 58.9844 44.3698ZM143.406 52.2865C150.531 47.5885 156.484 46.151 161.271 47.9687C157.562 43.3281 153.24 42.4687 148.307 45.3906C145.365 43.8594 142.875 43.8594 140.839 45.3906C138.161 46.4323 135.13 45.8698 132.995 43.9479C130.865 42.0208 129.99 39.0521 130.74 36.2708C128.411 40.9844 129.828 46.6979 134.089 49.7656C132.292 50.8594 129.984 50.6042 128.469 49.1406C126.958 47.6771 126.615 45.3698 127.635 43.5312C125.292 46.3958 124.724 50.3281 126.172 53.7448C127.615 57.1562 130.823 59.4844 134.505 59.7812C133.104 63.6927 133.708 68.0417 136.12 71.4167C135.724 65.4583 137.297 59.5365 140.599 54.5625C137.484 56.0677 133.776 55.5729 131.156 53.3073C134.172 53.0937 137.516 51.6562 141.198 48.9844C145.937 46.125 146.677 47.224 143.406 52.2865ZM194.854 104.75C180.771 109.995 164.953 104.677 156.859 91.974C169.12 99.8177 181.781 104.078 194.854 104.75ZM155.458 98.599C154.792 106.521 159.307 113.964 166.625 117.005C173.943 120.047 182.375 117.99 187.484 111.911C181.589 115.25 174.495 115.682 168.24 113.083C161.99 110.484 157.276 105.141 155.458 98.599ZM201.229 95.5365C193.901 100.776 183.927 100.177 177.271 94.099C185.583 96.7083 193.568 97.1927 201.229 95.5365ZM152.177 89.1146C164.448 74.9115 193.052 91.0417 212.281 81.6823C198.646 104.719 172.807 81.2969 152.177 89.1146ZM225.906 58.7656C221.245 74.9531 205.75 81.4687 179.422 78.3177C203.292 76.2552 218.786 69.7396 225.906 58.7656ZM224.833 44.3698C213.609 64.4479 167.604 66.5052 156.12 81.5573C177.776 73.3177 221.542 69.8437 224.833 44.3698ZM220.052 18.5781C222.245 41.1771 208.901 56.3281 180.016 64.0469C201.062 54.2135 214.406 39.0573 220.052 18.5781Z" fill="#D2AE6D"/>
<path d="M4.36315 193.918C2.24857 193.918 0.847524 193.96 0.154816 194.043V165.106C0.498565 165.189 1.21732 165.231 2.30065 165.231C3.38398 165.231 4.6444 165.205 6.09232 165.147V188.752H10.5506C11.8423 188.752 12.8736 188.705 13.6548 188.606C13.5559 191.981 13.509 193.731 13.509 193.856V194.064C12.0923 193.965 9.72252 193.918 6.40482 193.918H4.36315Z" fill="#D2AE6D"/>
<path d="M30.7981 193.918C30.9752 193.366 31.069 192.059 31.069 190.002V184.002C28.5794 178.517 26.9908 175.1 26.2981 173.752C25.6158 172.392 25.0377 171.314 24.569 170.522C23.069 167.996 22.1627 166.543 21.8606 166.168C21.5533 165.793 21.2408 165.481 20.9231 165.231H28.3606C28.5117 165.522 28.7252 165.949 29.0065 166.502L34.2148 177.522C34.4648 176.929 34.7565 176.252 35.0898 175.502C38.2252 168.752 39.819 165.33 39.8606 165.231H46.9648C46.2252 165.83 45.3294 167.064 44.2773 168.939C43.944 169.512 43.6106 170.147 43.2773 170.856L38.4023 181.022C37.8606 182.246 37.3919 183.345 37.0065 184.314V190.502C37.0065 191.949 37.0898 193.085 37.2565 193.918H30.7981Z" fill="#D2AE6D"/>
<path d="M56.8764 193.918C56.9702 193.434 57.0222 192.897 57.0222 192.314V165.231H61.3347L72.7514 183.231V166.71C72.7514 165.918 72.6785 165.429 72.5431 165.231H78.3556C78.2827 165.814 78.2514 166.449 78.2514 167.127V193.918H73.7722L62.5222 176.647V193.918H56.8764Z" fill="#D2AE6D"/>
<path d="M105.264 167.335C105.566 166.699 105.722 166.226 105.722 165.918C105.722 165.616 105.691 165.387 105.639 165.231H113.41C113.243 165.413 113.035 165.621 112.785 165.856C112.545 166.095 112.274 166.377 111.972 166.71C111.264 167.517 110.602 168.449 109.993 169.502L104.805 179.002L109.66 188.127L110.222 189.293C111.316 191.574 112.248 193.116 113.014 193.918H105.993C105.92 193.418 105.67 192.746 105.243 191.897L101.014 183.772C98.0398 189.804 96.5189 192.913 96.4512 193.106C96.3783 193.345 96.3262 193.616 96.2846 193.918H89.2429C89.7846 193.377 90.3314 192.606 90.8887 191.606L93.4721 187.022L98.0762 179.231L92.0346 167.877C91.3783 166.658 90.8106 165.772 90.3262 165.231H97.5762C97.5189 165.387 97.4929 165.543 97.4929 165.71C97.4929 166.101 97.67 166.642 98.0346 167.335L101.618 174.522L105.264 167.335Z" fill="#D2AE6D"/>
<path d="M157.19 194.002C156.731 193.944 155.971 193.918 154.919 193.918H152.544C152.169 193.918 151.82 193.929 151.502 193.96L151.481 193.918C151.534 193.824 151.565 193.71 151.565 193.585C151.565 193.449 151.549 193.309 151.523 193.168C151.508 193.017 151.445 192.762 151.336 192.397C151.237 192.022 151.086 191.481 150.877 190.772L149.961 187.877L141.94 165.147C142.825 165.205 143.961 165.231 145.336 165.231C146.721 165.231 147.612 165.179 148.002 165.064L154.502 184.668L160.19 165.147C161.049 165.205 162.112 165.231 163.377 165.231C165.096 165.231 166.106 165.179 166.398 165.064L158.523 187.814C158.523 187.814 158.273 188.658 157.773 190.335C157.356 191.783 157.148 192.72 157.148 193.147C157.148 193.564 157.174 193.83 157.231 193.939L157.19 194.002Z" fill="#D2AE6D"/>
<path d="M178.914 194.085C177.674 193.97 176.232 193.918 174.581 193.918H172.893L182.268 167.627C182.685 166.449 182.893 165.762 182.893 165.564C182.893 165.371 182.883 165.252 182.872 165.21L182.893 165.168C183.82 165.21 184.815 165.231 185.872 165.231C186.732 165.231 187.768 165.22 188.976 165.189L188.997 165.231C188.966 165.288 188.956 165.371 188.956 165.481C188.956 165.746 189.169 166.47 189.601 167.647L199.164 193.981C198.883 193.965 198.549 193.96 198.164 193.96C198.164 193.96 197.789 193.944 197.039 193.918C196.674 193.918 196.351 193.918 196.06 193.918H192.726L190.706 187.71H180.956L178.914 194.085ZM189.018 182.522L185.768 172.502L182.581 182.522H189.018Z" fill="#D2AE6D"/>
<path d="M225.183 165.127C226.068 165.199 226.808 165.231 227.391 165.231H229.183C229.792 165.231 230.422 165.179 231.078 165.064V182.897C231.078 186.439 230.006 189.283 227.87 191.418C225.839 193.449 223.297 194.46 220.245 194.46C216.881 194.46 214.167 193.595 212.099 191.856C209.792 189.897 208.641 187.08 208.641 183.397V165.127C209.834 165.199 210.959 165.231 212.016 165.231C213.068 165.231 213.943 165.179 214.641 165.064V183.668C214.641 185.491 215.188 186.897 216.287 187.897C217.328 188.814 218.625 189.272 220.183 189.272C222.474 189.272 224 188.101 224.766 185.752C225.042 184.908 225.183 183.856 225.183 182.606V165.127Z" fill="#D2AE6D"/>
<path d="M248.722 193.918C246.608 193.918 245.207 193.96 244.514 194.043V165.106C244.858 165.189 245.577 165.231 246.66 165.231C247.743 165.231 249.004 165.205 250.452 165.147V188.752H254.91C256.202 188.752 257.233 188.705 258.014 188.606C257.915 191.981 257.868 193.731 257.868 193.856V194.064C256.451 193.965 254.082 193.918 250.764 193.918H248.722Z" fill="#D2AE6D"/>
<path d="M279.491 194.043C278.793 193.96 277.017 193.918 274.157 193.918H273.47V170.064H269.199C267.933 170.064 267.183 170.137 266.949 170.272C266.725 170.397 266.553 170.512 266.428 170.606L266.366 170.585V165.064L266.428 165.002C266.897 165.158 268.178 165.231 270.261 165.231H283.782C285.043 165.231 285.787 165.168 286.011 165.043C286.246 164.918 286.428 164.804 286.553 164.689L286.636 164.71V170.231L286.553 170.314C286.079 170.147 284.803 170.064 282.72 170.064H279.491V194.043Z" fill="#D2AE6D"/>
</svg>
