<svg width="27725" height="32768" viewBox="0 0 27725 32768" fill="none" xmlns="http://www.w3.org/2000/svg">
<g clip-path="url(#clip0_7_16)">
<rect width="28485.6" height="23090.1" fill="#f1bc70"/>
<path d="M70.9445 1052.82L27604.3 16926.5L51.2702 32834.2L70.9445 1052.82Z" fill="#f1bc70"/>
<path d="M28599.9 33457.3L1066.51 17583.6L28619.6 1675.88L28599.9 33457.3Z" fill="#f1bc70"/>
<path fill-rule="evenodd" clip-rule="evenodd" d="M24833.6 4856.75C25141.5 8022.49 23268.1 10144.9 
19212.7 11226.2C22167.5 9848.68 24040.9 7725.54 24833.6 4856.75ZM25504.9 8469.74C23929 11282.3 17470.1 
11570.5 15857.8 13679.1C18898.2 12524.9 25042.8 12038.2 25504.9 8469.74ZM25655.5 10486.3C25001.1 12753.9 
22825.7 13666.7 19129.3 13225.3C22480.6 12936.4 24655.9 12023.6 25655.5 10486.3ZM15304.2 14737.7C17027 12748.1 
21042.9 15007.7 23742.6 13696.6C21828.3 16923.7 18200.6 13642.6 15304.2 14737.7ZM22190.9 15637.4C21162.1 16371.3 
19761.8 16287.4 18827.3 15436C19994.3 15801.5 21115.3 15869.4 22190.9 15637.4ZM15764.8 16066.3C15671.3 17176.1 
16305.2 18218.7 17332.6 18644.7C18360.1 19070.9 19543.9 18782.7 20261.2 17931.1C19433.5 18398.9 18437.6 18459.4 
17559.4 18095.3C16681.9 17731.3 16020.1 16982.8 15764.8 16066.3ZM21295.9 16928C19318.7 17662.7 17097.9 16917.8 
15961.5 15138.3C17682.9 16237.1 19460.5 16833.9 21295.9 16928ZM14072.8 9578.72C15073.1 8920.61 15908.9 8719.25 
16580.9 8973.87C16060.2 8323.8 15453.4 8203.41 14760.8 8612.73C14347.8 8398.22 13998.2 8398.22 13712.3 8612.73C13336.4 
8758.65 12910.8 8679.87 12611.1 8410.63C12312 8140.67 12189.2 7724.8 12294.5 7335.19C11967.5 7995.49 12166.4 8795.86 
12764.7 9225.59C12512.4 9378.81 12188.3 9343.07 11975.6 9138.04C11763.5 8933.04 11715.3 8609.8 11858.5 8352.25C11529.6 
8753.55 11449.8 9304.39 11653.1 9783.02C11855.7 10260.9 12306.1 10587 12823.1 10628.6C12626.4 11176.5 12711.2 11785.8 
13049.8 12258.6C12994.2 11423.9 13215.1 10594.3 13678.7 9897.56C13241.3 10108.4 12720.7 10039.1 12352.9 9721.74C12776.3 
9691.81 13245.8 9490.44 13762.8 9116.17C14428.1 8715.6 14532 8869.57 14072.8 9578.72V9578.72ZM2220.19 8469.74C3795.27 
11282.3 10255.1 11570.5 11867.4 13679.1C8826.11 12524.9 2681.6 12038.2 2220.19 8469.74ZM2068.82 10486.3C2724.01 12753.9 
4899.44 13666.7 8595.15 13225.3C5243.85 12936.4 3068.42 12023.6 2068.82 10486.3ZM12421 14737.7C10698.2 12748.1 6681.45 
15007.7 3981.73 13696.6C5896.11 16923.7 9523.74 13642.6 12421 14737.7ZM5533.41 15637.3C6562.27 16371.3 7963.31 16287.4 
8897.15 15436C7730.78 15801.5 6609.8 15869.4 5533.41 15637.3ZM11959.5 16066.3C12053.1 17176.1 11419.1 18218.7 10391.7 
18644.7C9365.09 19070.9 8180.42 18782.7 7463.15 17931.1C8290.91 18398.9 9286.89 18459.4 10165.1 18095.3C11042.6 17731.3 
11704.2 16982.8 11959.5 16066.3H11959.5ZM6429.17 16928C8405.76 17662.7 10626.4 16917.8 11762.8 15138.3C10041.5 16237.1 
8263.82 16833.9 6429.17 16928ZM2890.73 4856.75C2582.88 8022.49 4456.3 10144.9 8511.76 11226.2C5556.82 9848.68 3683.38 
7725.54 2890.73 4856.75ZM23189.2 3915.56C23309.1 6805.52 21440.7 9337.95 17585.6 11511.4C15423.4 12934.2 14098.4 14653.1 
15435.9 17324.9C16027.4 18506.9 17108.1 19367.8 18391.5 19678.5C17057.7 19556.8 15837.3 18879.6 15027 17811.5C12680.6 
14721.7 14619.7 12309.6 17418.1 10654.2C20781.9 8545.61 22705.8 6299.15 23189.9 3915.56H23189.2ZM13377.4 18015.9C13029.3 
19603.5 11982.9 20914.5 10576 21619.4C10905.1 21969.6 11286 22266.5 11704.2 22501.4C12731.7 21246.5 13329.9 19672.1 
13377.4 18015.9ZM13662.5 18166.9C13600.5 19802 13157.2 21391.8 12378.6 22812.9C12785 22963.2 13216.5 23058.1 13662.5 
23090.3V18166.9ZM17596.6 21064.1C16237.2 20524.9 15119.1 19448.1 14548.8 18032.6C15379.6 19234.3 16637.9 20031.7 
18025.8 20295C17905.9 20567.2 17761.8 20824.1 17596.6 21064.1H17596.6ZM14347.8 18015.9C14695.1 19602.8 15741.5 
20914.5 17148.3 21619.4C16819.3 21969.6 16438.3 22266.5 16020.8 22501.4C14993.5 21246.5 14394.5 19672.1 14347.8 
18015.9ZM14061.8 18166.9C14124 19802 14567.1 21391.8 15346.6 22812.9C14939.3 22963.2 14507.8 23058.1 14061.8 
23090.3V18166.9ZM10127.7 21064.1C11487.2 20524.9 12605.9 19448.1 13175.6 18032.6C12344.9 19234.3 11086.4 20031.7 
9698.53 20295C9818.43 20567.2 9962.48 20824.1 10127.7 21064.1ZM4534.54 3915.56C4416.09 6805.52 6283.67 9337.96 
10138.7 11511.4C12301.8 12933.4 13626 14653.1 12288.6 17324.9C11696.9 18506.2 10616.2 19367 9333.64 19678.6C10666.7 
19556.8 11887.9 18878.9 12697.3 17811.5C15043.9 14721 13104.6 12309.6 10306.2 10654.2C6942.51 8544.88 5018.63 
6299.16 4534.54 3915.56ZM6295.36 2362.24C5322.82 5389.35 6703.4 7862.72 10437 9781.57C7842.65 7807.25 6462.08 
5333.9 6295.36 2362.24ZM21429 2362.24C22401.5 5389.35 21021 7862.72 17287.3 9781.57C19882.4 7807.25 21263.1 5333.9 
21429 2362.24ZM15926.4 9494.09C15292.5 9417.48 14685.6 9772.07 14439.9 10362.3C14193.5 10952.6 14369.7 11634.7 
14869.8 12031.6C14665.8 11555.9 14662.8 11017.5 14862.5 10538.9C15061.4 10061 15446.1 9683.79 15926.4 9494.09Z" fill="black"/>
</g>
<defs>
<clipPath id="clip0_7_16">
<rect width="27968" height="33056" fill="white" transform="scale(0.991288)"/>
</clipPath>
</defs>
</svg>
