<svg width="1015" height="898" viewBox="0 0 1015 898" fill="none" xmlns="http://www.w3.org/2000/svg">
<g clip-path="url(#clip0_1_4)">
<rect width="1015" height="898" fill="black"/>
<path fill-rule="evenodd" clip-rule="evenodd" d="M939.664 139.081C951.777 263.554 878.067 347.004 718.512 389.518C834.766 335.357 908.476 251.878 939.664 139.081V139.081ZM966.073 281.139C904.073 391.727 649.951 403.058 586.515 485.964C706.139 440.581 947.894 421.447 966.073 281.139V281.139ZM972 360.429C946.253 449.588 860.662 485.476 715.231 468.121C847.085 456.761 932.67 420.873 972 360.429ZM564.735 527.588C632.517 449.36 790.521 538.204 896.738 486.653C821.421 613.536 678.691 484.53 564.735 527.588V527.588ZM835.689 562.96C795.21 591.819 740.116 588.519 703.349 555.042C749.263 569.415 793.371 572.082 835.689 562.96ZM582.858 579.828C579.179 623.461 604.119 664.457 644.543 681.206C684.966 697.961 731.543 686.632 759.764 653.149C727.201 671.54 688.015 673.919 653.464 659.604C618.94 645.29 592.901 615.861 582.858 579.828V579.828ZM800.475 613.707C722.683 642.596 635.307 613.305 590.597 543.338C658.325 586.54 728.262 610.006 800.475 613.707ZM516.285 324.743C555.642 298.867 588.526 290.949 614.968 300.961C594.48 275.401 570.606 270.667 543.358 286.761C527.106 278.327 513.352 278.327 502.106 286.761C487.313 292.498 470.57 289.401 458.777 278.815C447.011 268.201 442.178 251.849 446.321 236.53C433.456 262.492 441.283 293.962 464.82 310.858C454.894 316.883 442.145 315.477 433.776 307.416C425.43 299.355 423.535 286.646 429.169 276.52C416.227 292.298 413.089 313.956 421.088 332.775C429.059 351.565 446.779 364.389 467.118 366.023C459.379 387.567 462.715 411.521 476.039 430.11C473.851 397.292 482.54 364.675 500.78 337.279C483.573 345.57 463.091 342.845 448.619 330.366C465.278 329.189 483.75 321.272 504.089 306.556C530.266 290.806 534.354 296.86 516.285 324.743V324.743ZM49.9558 281.139C111.926 391.727 366.082 403.058 429.517 485.964C309.86 440.581 68.1094 421.447 49.9558 281.139V281.139ZM44 360.429C69.7779 449.588 155.368 485.476 300.774 468.121C168.919 456.761 83.3285 420.873 44 360.429V360.429ZM451.298 527.588C383.515 449.36 225.481 538.204 119.262 486.653C194.582 613.536 337.308 484.529 451.298 527.588ZM180.312 562.96C220.791 591.819 275.914 588.519 312.655 555.042C266.766 569.414 222.661 572.082 180.312 562.96ZM433.141 579.827C436.825 623.461 411.88 664.457 371.456 681.206C331.066 697.961 284.456 686.632 256.236 653.149C288.803 671.54 327.989 673.919 362.541 659.604C397.065 645.29 423.099 615.861 433.141 579.827H433.141ZM215.555 613.707C293.322 642.596 380.692 613.305 425.402 543.338C357.68 586.54 287.737 610.006 215.555 613.707ZM76.3376 139.081C64.2255 263.554 137.934 347.004 297.492 389.518C181.233 335.357 107.524 251.878 76.3376 139.081ZM874.963 102.075C879.68 215.704 806.17 315.276 654.497 400.734C569.424 456.674 517.296 524.261 569.916 629.311C593.188 675.786 635.71 709.638 686.203 721.855C633.727 717.068 585.709 690.443 553.831 648.445C461.511 526.957 537.806 432.118 647.907 367.028C780.252 284.122 855.945 195.794 874.991 102.075H874.963V102.075ZM488.926 656.481C475.232 718.902 434.063 770.451 378.709 798.167C391.657 811.937 406.643 823.608 423.098 832.844C463.522 783.504 487.059 721.601 488.926 656.481V656.481ZM500.145 662.419C497.703 726.707 480.264 789.216 449.629 845.094C465.621 851.004 482.596 854.733 500.145 856V662.419ZM654.928 776.333C601.446 755.133 557.454 712.794 535.017 657.137C567.701 704.389 617.211 735.74 671.814 746.095C667.097 756.797 661.429 766.898 654.928 776.333H654.928ZM527.106 656.481C540.772 718.875 581.941 770.451 637.29 798.167C624.348 811.937 609.356 823.608 592.928 832.844C552.511 783.504 528.946 721.601 527.106 656.481V656.481ZM515.855 662.419C518.301 726.707 535.735 789.216 566.403 845.094C550.378 851.004 533.404 854.733 515.855 856V662.419ZM361.072 776.333C414.559 755.133 458.572 712.794 480.988 657.137C448.304 704.389 398.788 735.74 344.185 746.095C348.903 756.797 354.57 766.898 361.072 776.333ZM141.012 102.075C136.352 215.704 209.83 315.276 361.502 400.734C446.608 456.645 498.709 524.261 446.089 629.311C422.811 675.759 380.289 709.605 329.829 721.855C382.277 717.069 430.324 690.416 462.168 648.445C554.493 526.929 478.193 432.118 368.092 367.028C235.752 284.093 160.058 195.795 141.012 102.075V102.075ZM210.29 41C172.026 160.022 226.344 257.272 373.241 332.718C271.167 255.091 216.85 157.842 210.29 41V41ZM805.711 41C843.975 160.022 789.659 257.272 642.759 332.718C744.861 255.091 799.182 157.842 805.711 41V41ZM589.216 321.415C564.276 318.403 540.397 332.345 530.73 355.553C521.036 378.76 527.968 405.583 547.644 421.189C539.618 402.485 539.502 381.314 547.357 362.495C555.184 343.705 570.319 328.874 589.216 321.415V321.415Z" fill="white"/>
</g>
<defs>
<clipPath id="clip0_1_4">
<rect width="1015" height="898" fill="white"/>
</clipPath>
</defs>
</svg>
